# xmcd
#
# Track frame offsets: 
#        150
#        14447
#        27786
#        42963
#        57463
#        71112
#        84789
#        98619
#        113051
#        127085
#        141650
#        155138
#        168642
#        182873
#        197004
#        212101
#        225248
#        240587
#        248964
#        261519
#        272836
#        286618
#        302942
#        308975
#
# Disc length: 4364 seconds
#
# Revision: 1
# Processed by: cddbd v1.5.2PL0 Copyright (c) Steve Scherf et al.
# Submitted via: ExactAudioCopy v0.99pb5
#
DISCID=63110a18
DTITLE=Billie Holiday - The Complete Columbia Golden Years Recordings 
DTITLE=Volume 5 CD2
DYEAR=1900
DGENRE=Jazz
TTITLE0=Jim (-1)
TTITLE1=I Cover the Waterfront (-1)
TTITLE2=Love Me Or Leave Me (-1)
TTITLE3=Gloomy Sunday (-1)
TTITLE4=Wherever You Are (-1)
TTITLE5=Mandy Is Two (-1)
TTITLE6=It's A Sin to Tell A Lie (-1)
TTITLE7=(It Will Have To Do) Until the Real Thing Comes Along (-1)
TTITLE8=Jim (-2)
TTITLE9=Gloomy Sunday (-2)
TTITLE10=Wherever You Are (-2)
TTITLE11=Mandy Is Two (-2)
TTITLE12=It's A Sin to Tell A Lie (-2)
TTITLE13=It's A Sin to Tell A Lie (-3)
TTITLE14=(It Will Have To Do) Until the Real Thing Comes Along (-2)
TTITLE15=Big City Blues (Saddest Tale - Lost My Man Blues)
TTITLE16=They Can't Take That Away From Me
TTITLE17=Swing, Brother, Swing
TTITLE18=I Can't Get Started
TTITLE19=I Cried For You (Now It's Your Turn to Cry Over Me)
TTITLE20=Jeepers Creepers
TTITLE21=Do Nothing 'Till You Hear From Me
TTITLE22=I'll Get By
TTITLE23=I Love My Man [Billie's Blues]
EXTD=
EXTT0=
EXTT1=
EXTT2=
EXTT3=
EXTT4=
EXTT5=
EXTT6=
EXTT7=
EXTT8=
EXTT9=
EXTT10=
EXTT11=
EXTT12=
EXTT13=
EXTT14=
EXTT15=
EXTT16=
EXTT17=
EXTT18=
EXTT19=
EXTT20=
EXTT21=
EXTT22=
EXTT23=
PLAYORDER=
